<svg viewBox="0 0 330 200" xmlns="http://www.w3.org/2000/svg"><g><g><g><g><g><line x1="60" y1="178" x2="55" y2="178" style="visibility: inherit;" fill="rgb(0, 0, 0)" stroke="rgb(204, 204, 204)" stroke-width="1px"></line><line x1="60" y1="161.8181818181818" x2="55" y2="161.8181818181818" style="visibility: inherit;" fill="rgb(0, 0, 0)" stroke="rgb(204, 204, 204)" stroke-width="1px"></line><line x1="60" y1="145.63636363636363" x2="55" y2="145.63636363636363" style="visibility: inherit;" fill="rgb(0, 0, 0)" stroke="rgb(204, 204, 204)" stroke-width="1px"></line><line x1="60" y1="129.45454545454547" x2="55" y2="129.45454545454547" style="visibility: inherit;" fill="rgb(0, 0, 0)" stroke="rgb(204, 204, 204)" stroke-width="1px"></line><line x1="60" y1="113.27272727272727" x2="55" y2="113.27272727272727" style="visibility: inherit;" fill="rgb(0, 0, 0)" stroke="rgb(204, 204, 204)" stroke-width="1px"></line><line x1="60" y1="97.09090909090908" x2="55" y2="97.09090909090908" style="visibility: inherit;" fill="rgb(0, 0, 0)" stroke="rgb(204, 204, 204)" stroke-width="1px"></line><line x1="60" y1="80.90909090909089" x2="55" y2="80.90909090909089" style="visibility: inherit;" fill="rgb(0, 0, 0)" stroke="rgb(204, 204, 204)" stroke-width="1px"></line><line x1="60" y1="64.72727272727275" x2="55" y2="64.72727272727275" style="visibility: inherit;" fill="rgb(0, 0, 0)" stroke="rgb(204, 204, 204)" stroke-width="1px"></line><line x1="60" y1="48.54545454545454" x2="55" y2="48.54545454545454" style="visibility: inherit;" fill="rgb(0, 0, 0)" stroke="rgb(204, 204, 204)" stroke-width="1px"></line><line x1="60" y1="32.363636363636374" x2="55" y2="32.363636363636374" style="visibility: inherit;" fill="rgb(0, 0, 0)" stroke="rgb(204, 204, 204)" stroke-width="1px"></line><line x1="60" y1="16.181818181818187" x2="55" y2="16.181818181818187" style="visibility: inherit;" fill="rgb(0, 0, 0)" stroke="rgb(204, 204, 204)" stroke-width="1px"></line><line x1="60" y1="0" x2="55" y2="0" style="visibility: inherit;" fill="rgb(0, 0, 0)" stroke="rgb(204, 204, 204)" stroke-width="1px"></line></g><g transform="translate(50, 0)"><text x="0" y="178" dx="0em" dy="0.3em" style="text-anchor: end; visibility: hidden; font-family: Roboto, sans-serif; font-size: 12px; font-weight: 200;" fill="rgb(50, 49, 63)" stroke="none" stroke-width="1px">-0.02</text><text x="0" y="161.8181818181818" dx="0em" dy="0.3em" style="text-anchor: end; visibility: inherit; font-family: Roboto, sans-serif; font-size: 12px; font-weight: 200;" fill="rgb(50, 49, 63)" stroke="none" stroke-width="1px">0</text><text x="0" y="145.63636363636363" dx="0em" dy="0.3em" style="text-anchor: end; visibility: hidden; font-family: Roboto, sans-serif; font-size: 12px; font-weight: 200;" fill="rgb(50, 49, 63)" stroke="none" stroke-width="1px">0.02</text><text x="0" y="129.45454545454547" dx="0em" dy="0.3em" style="text-anchor: end; visibility: inherit; font-family: Roboto, sans-serif; font-size: 12px; font-weight: 200;" fill="rgb(50, 49, 63)" stroke="none" stroke-width="1px">0.04</text><text x="0" y="113.27272727272727" dx="0em" dy="0.3em" style="text-anchor: end; visibility: hidden; font-family: Roboto, sans-serif; font-size: 12px; font-weight: 200;" fill="rgb(50, 49, 63)" stroke="none" stroke-width="1px">0.06</text><text x="0" y="97.09090909090908" dx="0em" dy="0.3em" style="text-anchor: end; visibility: inherit; font-family: Roboto, sans-serif; font-size: 12px; font-weight: 200;" fill="rgb(50, 49, 63)" stroke="none" stroke-width="1px">0.08</text><text x="0" y="80.90909090909089" dx="0em" dy="0.3em" style="text-anchor: end; visibility: hidden; font-family: Roboto, sans-serif; font-size: 12px; font-weight: 200;" fill="rgb(50, 49, 63)" stroke="none" stroke-width="1px">0.1</text><text x="0" y="64.72727272727275" dx="0em" dy="0.3em" style="text-anchor: end; visibility: inherit; font-family: Roboto, sans-serif; font-size: 12px; font-weight: 200;" fill="rgb(50, 49, 63)" stroke="none" stroke-width="1px">0.12</text><text x="0" y="48.54545454545454" dx="0em" dy="0.3em" style="text-anchor: end; visibility: hidden; font-family: Roboto, sans-serif; font-size: 12px; font-weight: 200;" fill="rgb(50, 49, 63)" stroke="none" stroke-width="1px">0.14</text><text x="0" y="32.363636363636374" dx="0em" dy="0.3em" style="text-anchor: end; visibility: inherit; font-family: Roboto, sans-serif; font-size: 12px; font-weight: 200;" fill="rgb(50, 49, 63)" stroke="none" stroke-width="1px">0.16</text><text x="0" y="16.181818181818187" dx="0em" dy="0.3em" style="text-anchor: end; visibility: hidden; font-family: Roboto, sans-serif; font-size: 12px; font-weight: 200;" fill="rgb(50, 49, 63)" stroke="none" stroke-width="1px">0.18</text><text x="0" y="0" dx="0em" dy="0.3em" style="text-anchor: end; visibility: hidden; font-family: Roboto, sans-serif; font-size: 12px; font-weight: 200;" fill="rgb(50, 49, 63)" stroke="none" stroke-width="1px">0.2</text></g><line x1="60" y1="0" x2="60" y2="178" fill="rgb(0, 0, 0)" stroke="rgb(204, 204, 204)" stroke-width="1px"></line></g></g><g transform="translate(60, 0)" clip-path="url(#clip_0)"><clipPath id="clip_0"><rect width="270" height="178"></rect></clipPath><g><g><g><line x1="0" y1="0" x2="0" y2="178" fill="rgb(0, 0, 0)" stroke="rgb(60, 60, 60)" stroke-width="1px" opacity="0.25"></line><line x1="24.545454545454547" y1="0" x2="24.545454545454547" y2="178" fill="rgb(0, 0, 0)" stroke="rgb(60, 60, 60)" stroke-width="1px" opacity="0.25"></line><line x1="49.09090909090909" y1="0" x2="49.09090909090909" y2="178" fill="rgb(0, 0, 0)" stroke="rgb(60, 60, 60)" stroke-width="1px" opacity="0.25"></line><line x1="73.63636363636363" y1="0" x2="73.63636363636363" y2="178" fill="rgb(0, 0, 0)" stroke="rgb(60, 60, 60)" stroke-width="1px" opacity="0.25"></line><line x1="98.18181818181819" y1="0" x2="98.18181818181819" y2="178" fill="rgb(0, 0, 0)" stroke="rgb(60, 60, 60)" stroke-width="1px" opacity="0.25"></line><line x1="122.72727272727272" y1="0" x2="122.72727272727272" y2="178" fill="rgb(0, 0, 0)" stroke="rgb(60, 60, 60)" stroke-width="1px" opacity="0.25"></line><line x1="147.27272727272725" y1="0" x2="147.27272727272725" y2="178" fill="rgb(0, 0, 0)" stroke="rgb(60, 60, 60)" stroke-width="1px" opacity="0.25"></line><line x1="171.8181818181818" y1="0" x2="171.8181818181818" y2="178" fill="rgb(0, 0, 0)" stroke="rgb(60, 60, 60)" stroke-width="1px" opacity="0.25"></line><line x1="196.36363636363637" y1="0" x2="196.36363636363637" y2="178" fill="rgb(0, 0, 0)" stroke="rgb(60, 60, 60)" stroke-width="1px" opacity="0.25"></line><line x1="220.90909090909093" y1="0" x2="220.90909090909093" y2="178" fill="rgb(0, 0, 0)" stroke="rgb(60, 60, 60)" stroke-width="1px" opacity="0.25"></line><line x1="245.45454545454544" y1="0" x2="245.45454545454544" y2="178" fill="rgb(0, 0, 0)" stroke="rgb(60, 60, 60)" stroke-width="1px" opacity="0.25"></line><line x1="270" y1="0" x2="270" y2="178" fill="rgb(0, 0, 0)" stroke="rgb(60, 60, 60)" stroke-width="1px" opacity="0.25"></line></g><g><line x1="0" y1="178" x2="270" y2="178" fill="rgb(0, 0, 0)" stroke="rgb(60, 60, 60)" stroke-width="1px" opacity="0.25"></line><line x1="0" y1="161.8181818181818" x2="270" y2="161.8181818181818" fill="rgb(0, 0, 0)" stroke="rgb(60, 60, 60)" stroke-width="1px" opacity="0.25"></line><line x1="0" y1="145.63636363636363" x2="270" y2="145.63636363636363" fill="rgb(0, 0, 0)" stroke="rgb(60, 60, 60)" stroke-width="1px" opacity="0.25"></line><line x1="0" y1="129.45454545454547" x2="270" y2="129.45454545454547" fill="rgb(0, 0, 0)" stroke="rgb(60, 60, 60)" stroke-width="1px" opacity="0.25"></line><line x1="0" y1="113.27272727272727" x2="270" y2="113.27272727272727" fill="rgb(0, 0, 0)" stroke="rgb(60, 60, 60)" stroke-width="1px" opacity="0.25"></line><line x1="0" y1="97.09090909090908" x2="270" y2="97.09090909090908" fill="rgb(0, 0, 0)" stroke="rgb(60, 60, 60)" stroke-width="1px" opacity="0.25"></line><line x1="0" y1="80.90909090909089" x2="270" y2="80.90909090909089" fill="rgb(0, 0, 0)" stroke="rgb(60, 60, 60)" stroke-width="1px" opacity="0.25"></line><line x1="0" y1="64.72727272727275" x2="270" y2="64.72727272727275" fill="rgb(0, 0, 0)" stroke="rgb(60, 60, 60)" stroke-width="1px" opacity="0.25"></line><line x1="0" y1="48.54545454545454" x2="270" y2="48.54545454545454" fill="rgb(0, 0, 0)" stroke="rgb(60, 60, 60)" stroke-width="1px" opacity="0.25"></line><line x1="0" y1="32.363636363636374" x2="270" y2="32.363636363636374" fill="rgb(0, 0, 0)" stroke="rgb(60, 60, 60)" stroke-width="1px" opacity="0.25"></line><line x1="0" y1="16.181818181818187" x2="270" y2="16.181818181818187" fill="rgb(0, 0, 0)" stroke="rgb(60, 60, 60)" stroke-width="1px" opacity="0.25"></line><line x1="0" y1="0" x2="270" y2="0" fill="rgb(0, 0, 0)" stroke="rgb(60, 60, 60)" stroke-width="1px" opacity="0.25"></line></g></g></g><g><g><line x1="0" y1="161.8181818181818" x2="270" y2="161.8181818181818" fill="rgb(0, 0, 0)" stroke="rgb(153, 153, 153)" stroke-width="1.5px"></line></g></g><g><g><line x1="24.545454545454547" y1="0" x2="24.545454545454547" y2="178" fill="rgb(0, 0, 0)" stroke="rgb(153, 153, 153)" stroke-width="1.5px"></line></g></g><g><g><g><g><g><path stroke="rgb(0, 153, 136)" stroke-width="2px" d="M30.68181818181818,183.74571521269073L36.81818181818181,170.3746448862427L42.95454545454545,168.06012928309067L49.09090909090909,162.1283244856257L55.227272727272734,156.72551967333868L61.36363636363636,150.95916756717347L67.5,152.53683544415787L73.63636363636363,150.4020497109976L79.77272727272728,149.64877494782758L85.9090909090909,149.15307399632587L92.04545454545453,150.27942316570204L98.18181818181819,148.19280437630593L104.31818181818181,148.57839169048077L110.45454545454547,147.6692819422045L116.5909090909091,149.2610585006391L122.72727272727272,149.56602962524778L128.86363636363637,150.03694413006912L135,149.33339767738448L141.13636363636363,149.40795263483375L147.27272727272725,147.20109142796127L153.40909090909093,148.08668335334602L159.54545454545456,146.00775801944866L165.6818181818182,146.41563627592183L171.8181818181818,146.24184719614055L177.95454545454544,142.1122772128007L184.09090909090907,141.7188494605066L190.22727272727275,141.2042106208491L196.36363636363637,141.23020597592162L202.5,139.4412963641712L208.63636363636363,138.10329367534558L214.77272727272725,140.47573791115673L220.90909090909093,138.35140886938171L227.04545454545456,136.8975449808715L233.1818181818182,137.70069655146972L239.3181818181818,136.757478289756L245.45454545454544,137.57464843423858L251.59090909090907,134.7275103532391L257.72727272727275,133.40632215625087L263.8636363636364,133.97975542153068" style="fill: none;" fill="none"></path></g><g><path stroke="rgb(238, 51, 119)" stroke-width="2px" d="M30.68181818181818,183.3271113241261L36.81818181818181,175.0940393358953L42.95454545454545,169.45436416583942L49.09090909090909,138.48537000585816L55.227272727272734,156.0922265758889L61.36363636363636,114.8731999297481L67.5,111.0123312558818L73.63636363636363,113.23882918288113L79.77272727272728,97.48350755843843L85.9090909090909,124.254179139L92.04545454545453,114.09273544930765L98.18181818181819,96.94841215358971L104.31818181818181,91.2577802745982L110.45454545454547,78.64650230366499L116.5909090909091,82.72431501832136L122.72727272727272,79.2349670236092L128.86363636363637,81.62757312251165L135,75.80084961615499L141.13636363636363,101.02383625877123L147.27272727272725,82.00513363606449L153.40909090909093,81.30936799664777L159.54545454545456,69.64997608635451L165.6818181818182,71.98088952299656L171.8181818181818,65.86107556547537L177.95454545454544,49.99101955763592L184.09090909090907,63.13178484042289L190.22727272727275,53.09567019852632L196.36363636363637,51.044948993043946L202.5,43.56969387849633L208.63636363636363,36.27153398783475L214.77272727272725,45.26431886983773L220.90909090909093,50.20312432278203L227.04545454545456,34.84858730177399L233.1818181818182,23.46243024138631L239.3181818181818,23.267482128597052L245.45454545454544,23.01607482252937L251.59090909090907,15.796291692326168L257.72727272727275,7.769397462819523L263.8636363636364,11.546185748833498" style="fill: none;" fill="none"></path></g><g><path stroke="rgb(51, 187, 238)" stroke-width="2px" d="M24.545454545454547,70.47856066714634L30.68181818181818,74.62206073274668L36.81818181818181,78.62793567616335L42.95454545454545,78.98039676463182L49.09090909090909,79.98354992885844L55.227272727272734,80.89698125063622L61.36363636363636,75.16029061953928L67.5,71.32580696653962L73.63636363636363,69.32330387656287L79.77272727272728,65.14658672705134L85.9090909090909,65.22766737024399L92.04545454545453,62.1909243771567L98.18181818181819,54.56752551384734L104.31818181818181,55.31639041326126L110.45454545454547,52.39609957564042L116.5909090909091,51.17926531690548L122.72727272727272,49.17926470212524L128.86363636363637,49.516166634148476L135,46.25393519880308L141.13636363636363,49.39714571369797L147.27272727272725,44.524238244303184L153.40909090909093,41.088602366857714L159.54545454545456,36.691039742752054L165.6818181818182,40.29852807637286L171.8181818181818,37.51113602053709L177.95454545454544,32.84598546006623L184.09090909090907,35.25179553506824L190.22727272727275,33.181716684440936L196.36363636363637,33.7233034267234L202.5,28.592161943102766L208.63636363636363,25.470079577118334L214.77272727272725,27.164042822105642L220.90909090909093,27.965368360475438L227.04545454545456,21.437439191367023L233.1818181818182,21.790270581040662L239.3181818181818,23.684487444525463L245.45454545454544,23.133985609528494L251.59090909090907,21.30411985746803L257.72727272727275,16.643960343918398L263.8636363636364,18.534884289447913" style="fill: none;" fill="none"></path></g></g></g></g><g opacity="0.2"><g><g><g><path stroke="rgb(0, 153, 136)" stroke-width="2px" d="M24.545454545454547,218.45674598758873L30.68181818181818,162.91909674775195L36.81818181818181,157.53841737285256L42.95454545454545,165.33825893378392L49.09090909090909,154.38376014205542L55.227272727272734,149.25149560821328L61.36363636363636,142.71319179372355L67.5,154.8370903544128L73.63636363636363,147.25365541536698L79.77272727272728,148.53024971417406L85.9090909090909,148.41401854021981L92.04545454545453,151.96281737732616L98.18181818181819,145.06968936459586L104.31818181818181,149.156017256054L110.45454545454547,146.30668594417247L116.5909090909091,151.64760069413617L122.72727272727272,150.02335725860164L128.86363636363637,150.74319632215932L135,148.27818517657843L141.13636363636363,149.51977825638923L147.27272727272725,143.89092064716598L153.40909090909093,149.41504210064355L159.54545454545456,142.88941106335685L165.6818181818182,147.02744882892478L171.8181818181818,145.98116481168702L177.95454545454544,135.91793984852055L184.09090909090907,141.1287088387392L190.22727272727275,140.43225315145472L196.36363636363637,141.26919898458502L202.5,136.7579329352487L208.63636363636363,136.09629008580336L214.77272727272725,144.03440379283646L220.90909090909093,135.16491556032136L227.04545454545456,134.7167492522435L233.1818181818182,138.90542387285015L239.3181818181818,135.34265092150733L245.45454545454544,138.80040363831952L251.59090909090907,130.45680325816977L257.72727272727275,131.42453986812723L263.8636363636364,134.8399053175341" style="fill: none;" fill="none"></path></g><g><path stroke="rgb(238, 51, 119)" stroke-width="2px" d="M24.545454545454547,254.81322423978284L30.68181818181818,140.43544357473198L36.81818181818181,167.1902902271937L42.95454545454545,162.82210616585374L49.09090909090909,98.05225123058665L55.227272727272734,180.44884768060663L61.36363636363636,55.929332321340404L67.5,105.38314766504548L73.63636363636363,116.52248115024783L79.77272727272728,74.08869113434446L85.9090909090909,164.16737848892808L92.04545454545453,98.90586804259908L98.18181818181819,71.28790640018205L104.31818181818181,82.73298099637032L110.45454545454547,59.74440943111074L116.5909090909091,88.83815810084343L122.72727272727272,74.00242160667074L128.86363636363637,85.21587478843601L135,67.06165199930018L141.13636363636363,138.8560107418082L147.27272727272725,53.47812273285607L153.40909090909093,80.2657424319874L159.54545454545456,52.161118415268994L165.6818181818182,75.4772320660678L171.8181818181818,56.68139812621204L177.95454545454544,26.186003224416215L184.09090909090907,82.84289914098652L190.22727272727275,38.04151364348153L196.36363636363637,47.968869073824465L202.5,32.356815338134766L208.63636363636363,25.324296571991663L214.77272727272725,58.75349440357903L220.90909090909093,57.61133191260425L227.04545454545456,11.81678287007592L233.1818181818182,6.383195140145044L239.3181818181818,22.97505996444009L245.45454545454544,22.638963867317557L251.59090909090907,4.966617064042529L257.72727272727275,-4.270943836732348L263.8636363636364,17.211368165232937" style="fill: none;" fill="none"></path></g><g><path stroke="rgb(51, 187, 238)" stroke-width="2px" d="M24.545454545454547,70.47856066714634L30.68181818181818,77.10816077210687L36.81818181818181,82.47357562184334L42.95454545454545,79.39489100467074L49.09090909090909,81.29326670007272L55.227272727272734,82.16058560393073L61.36363636363636,66.95673123002052L67.5,65.73509298942308L73.63636363636363,66.37000078504737L79.77272727272728,58.94464853135023L85.9090909090909,65.34855293956672L92.04545454545453,57.652335708791576L98.18181818181819,43.157318938862204L104.31818181818181,56.43822065808556L110.45454545454547,48.01909601146525L116.5909090909091,49.35487213459883L122.72727272727272,46.180110113187276L128.86363636363637,50.02143399281937L135,41.36108501390978L141.13636363636363,54.11167418414897L147.27272727272725,37.21514428203758L153.40909090909093,35.935261601751506L159.54545454545456,30.09478262879632L165.6818181818182,45.70971784266559L171.8181818181818,33.33006774837321L177.95454545454544,25.848279514096003L184.09090909090907,38.8605044917627L190.22727272727275,30.07660158655862L196.36363636363637,34.535683041269145L202.5,20.895452553575694L208.63636363636363,20.786957063458186L214.77272727272725,29.704987352544627L220.90909090909093,29.167356572367947L227.04545454545456,11.64554590528663L233.1818181818182,22.319517650387507L239.3181818181818,26.525812690908275L245.45454545454544,22.30823286555032L251.59090909090907,18.55932124636392L257.72727272727275,9.653721099550088L263.8636363636364,21.37127020142297" style="fill: none;" fill="none"></path></g></g></g></g></g></g><g transform="translate(60, 178)" clip-path="url(#clip_1)"><clipPath id="clip_1"><rect width="270" height="22"></rect></clipPath><g><g><line x1="0" y1="0" x2="0" y2="5" style="visibility: inherit;" fill="rgb(0, 0, 0)" stroke="rgb(204, 204, 204)" stroke-width="1px"></line><line x1="24.545454545454547" y1="0" x2="24.545454545454547" y2="5" style="visibility: inherit;" fill="rgb(0, 0, 0)" stroke="rgb(204, 204, 204)" stroke-width="1px"></line><line x1="49.09090909090909" y1="0" x2="49.09090909090909" y2="5" style="visibility: inherit;" fill="rgb(0, 0, 0)" stroke="rgb(204, 204, 204)" stroke-width="1px"></line><line x1="73.63636363636363" y1="0" x2="73.63636363636363" y2="5" style="visibility: inherit;" fill="rgb(0, 0, 0)" stroke="rgb(204, 204, 204)" stroke-width="1px"></line><line x1="98.18181818181819" y1="0" x2="98.18181818181819" y2="5" style="visibility: inherit;" fill="rgb(0, 0, 0)" stroke="rgb(204, 204, 204)" stroke-width="1px"></line><line x1="122.72727272727272" y1="0" x2="122.72727272727272" y2="5" style="visibility: inherit;" fill="rgb(0, 0, 0)" stroke="rgb(204, 204, 204)" stroke-width="1px"></line><line x1="147.27272727272725" y1="0" x2="147.27272727272725" y2="5" style="visibility: inherit;" fill="rgb(0, 0, 0)" stroke="rgb(204, 204, 204)" stroke-width="1px"></line><line x1="171.8181818181818" y1="0" x2="171.8181818181818" y2="5" style="visibility: inherit;" fill="rgb(0, 0, 0)" stroke="rgb(204, 204, 204)" stroke-width="1px"></line><line x1="196.36363636363637" y1="0" x2="196.36363636363637" y2="5" style="visibility: inherit;" fill="rgb(0, 0, 0)" stroke="rgb(204, 204, 204)" stroke-width="1px"></line><line x1="220.90909090909093" y1="0" x2="220.90909090909093" y2="5" style="visibility: inherit;" fill="rgb(0, 0, 0)" stroke="rgb(204, 204, 204)" stroke-width="1px"></line><line x1="245.45454545454544" y1="0" x2="245.45454545454544" y2="5" style="visibility: inherit;" fill="rgb(0, 0, 0)" stroke="rgb(204, 204, 204)" stroke-width="1px"></line><line x1="270" y1="0" x2="270" y2="5" style="visibility: inherit;" fill="rgb(0, 0, 0)" stroke="rgb(204, 204, 204)" stroke-width="1px"></line></g><g transform="translate(0, 8)"><text x="0" y="0" dx="0em" dy="0.95em" style="text-anchor: middle; visibility: hidden; font-family: Roboto, sans-serif; font-size: 12px; font-weight: 200;" fill="rgb(50, 49, 63)" stroke="none" stroke-width="1px">-1k</text><text x="24.545454545454547" y="0" dx="0em" dy="0.95em" style="text-anchor: middle; visibility: inherit; font-family: Roboto, sans-serif; font-size: 12px; font-weight: 200;" fill="rgb(50, 49, 63)" stroke="none" stroke-width="1px">0</text><text x="49.09090909090909" y="0" dx="0em" dy="0.95em" style="text-anchor: middle; visibility: inherit; font-family: Roboto, sans-serif; font-size: 12px; font-weight: 200;" fill="rgb(50, 49, 63)" stroke="none" stroke-width="1px">1k</text><text x="73.63636363636363" y="0" dx="0em" dy="0.95em" style="text-anchor: middle; visibility: inherit; font-family: Roboto, sans-serif; font-size: 12px; font-weight: 200;" fill="rgb(50, 49, 63)" stroke="none" stroke-width="1px">2k</text><text x="98.18181818181819" y="0" dx="0em" dy="0.95em" style="text-anchor: middle; visibility: inherit; font-family: Roboto, sans-serif; font-size: 12px; font-weight: 200;" fill="rgb(50, 49, 63)" stroke="none" stroke-width="1px">3k</text><text x="122.72727272727272" y="0" dx="0em" dy="0.95em" style="text-anchor: middle; visibility: inherit; font-family: Roboto, sans-serif; font-size: 12px; font-weight: 200;" fill="rgb(50, 49, 63)" stroke="none" stroke-width="1px">4k</text><text x="147.27272727272725" y="0" dx="0em" dy="0.95em" style="text-anchor: middle; visibility: inherit; font-family: Roboto, sans-serif; font-size: 12px; font-weight: 200;" fill="rgb(50, 49, 63)" stroke="none" stroke-width="1px">5k</text><text x="171.8181818181818" y="0" dx="0em" dy="0.95em" style="text-anchor: middle; visibility: inherit; font-family: Roboto, sans-serif; font-size: 12px; font-weight: 200;" fill="rgb(50, 49, 63)" stroke="none" stroke-width="1px">6k</text><text x="196.36363636363637" y="0" dx="0em" dy="0.95em" style="text-anchor: middle; visibility: inherit; font-family: Roboto, sans-serif; font-size: 12px; font-weight: 200;" fill="rgb(50, 49, 63)" stroke="none" stroke-width="1px">7k</text><text x="220.90909090909093" y="0" dx="0em" dy="0.95em" style="text-anchor: middle; visibility: inherit; font-family: Roboto, sans-serif; font-size: 12px; font-weight: 200;" fill="rgb(50, 49, 63)" stroke="none" stroke-width="1px">8k</text><text x="245.45454545454544" y="0" dx="0em" dy="0.95em" style="text-anchor: middle; visibility: inherit; font-family: Roboto, sans-serif; font-size: 12px; font-weight: 200;" fill="rgb(50, 49, 63)" stroke="none" stroke-width="1px">9k</text><text x="270" y="0" dx="0em" dy="0.95em" style="text-anchor: middle; visibility: hidden; font-family: Roboto, sans-serif; font-size: 12px; font-weight: 200;" fill="rgb(50, 49, 63)" stroke="none" stroke-width="1px">10k</text></g><line x1="0" y1="0" x2="270" y2="0" fill="rgb(0, 0, 0)" stroke="rgb(204, 204, 204)" stroke-width="1px"></line></g></g></g></g></svg>