<svg viewBox="0 0 330 200" xmlns="http://www.w3.org/2000/svg"><g><g><g><g><g><line x1="60" y1="178" x2="55" y2="178" style="visibility: inherit;" fill="rgb(0, 0, 0)" stroke="rgb(204, 204, 204)" stroke-width="1px"></line><line x1="60" y1="160.20000000000002" x2="55" y2="160.20000000000002" style="visibility: inherit;" fill="rgb(0, 0, 0)" stroke="rgb(204, 204, 204)" stroke-width="1px"></line><line x1="60" y1="142.4" x2="55" y2="142.4" style="visibility: inherit;" fill="rgb(0, 0, 0)" stroke="rgb(204, 204, 204)" stroke-width="1px"></line><line x1="60" y1="124.6" x2="55" y2="124.6" style="visibility: inherit;" fill="rgb(0, 0, 0)" stroke="rgb(204, 204, 204)" stroke-width="1px"></line><line x1="60" y1="106.8" x2="55" y2="106.8" style="visibility: inherit;" fill="rgb(0, 0, 0)" stroke="rgb(204, 204, 204)" stroke-width="1px"></line><line x1="60" y1="89" x2="55" y2="89" style="visibility: inherit;" fill="rgb(0, 0, 0)" stroke="rgb(204, 204, 204)" stroke-width="1px"></line><line x1="60" y1="71.2" x2="55" y2="71.2" style="visibility: inherit;" fill="rgb(0, 0, 0)" stroke="rgb(204, 204, 204)" stroke-width="1px"></line><line x1="60" y1="53.400000000000006" x2="55" y2="53.400000000000006" style="visibility: inherit;" fill="rgb(0, 0, 0)" stroke="rgb(204, 204, 204)" stroke-width="1px"></line><line x1="60" y1="35.599999999999994" x2="55" y2="35.599999999999994" style="visibility: inherit;" fill="rgb(0, 0, 0)" stroke="rgb(204, 204, 204)" stroke-width="1px"></line><line x1="60" y1="17.799999999999976" x2="55" y2="17.799999999999976" style="visibility: inherit;" fill="rgb(0, 0, 0)" stroke="rgb(204, 204, 204)" stroke-width="1px"></line><line x1="60" y1="0" x2="55" y2="0" style="visibility: inherit;" fill="rgb(0, 0, 0)" stroke="rgb(204, 204, 204)" stroke-width="1px"></line></g><g transform="translate(50, 0)"><text x="0" y="178" dx="0em" dy="0.3em" style="text-anchor: end; visibility: hidden; font-family: Roboto, sans-serif; font-size: 12px; font-weight: 200;" fill="rgb(50, 49, 63)" stroke="none" stroke-width="1px">-0.01</text><text x="0" y="160.20000000000002" dx="0em" dy="0.3em" style="text-anchor: end; visibility: inherit; font-family: Roboto, sans-serif; font-size: 12px; font-weight: 200;" fill="rgb(50, 49, 63)" stroke="none" stroke-width="1px">-8e-3</text><text x="0" y="142.4" dx="0em" dy="0.3em" style="text-anchor: end; visibility: hidden; font-family: Roboto, sans-serif; font-size: 12px; font-weight: 200;" fill="rgb(50, 49, 63)" stroke="none" stroke-width="1px">-6e-3</text><text x="0" y="124.6" dx="0em" dy="0.3em" style="text-anchor: end; visibility: inherit; font-family: Roboto, sans-serif; font-size: 12px; font-weight: 200;" fill="rgb(50, 49, 63)" stroke="none" stroke-width="1px">-4e-3</text><text x="0" y="106.8" dx="0em" dy="0.3em" style="text-anchor: end; visibility: hidden; font-family: Roboto, sans-serif; font-size: 12px; font-weight: 200;" fill="rgb(50, 49, 63)" stroke="none" stroke-width="1px">-2e-3</text><text x="0" y="89" dx="0em" dy="0.3em" style="text-anchor: end; visibility: inherit; font-family: Roboto, sans-serif; font-size: 12px; font-weight: 200;" fill="rgb(50, 49, 63)" stroke="none" stroke-width="1px">0</text><text x="0" y="71.2" dx="0em" dy="0.3em" style="text-anchor: end; visibility: hidden; font-family: Roboto, sans-serif; font-size: 12px; font-weight: 200;" fill="rgb(50, 49, 63)" stroke="none" stroke-width="1px">2e-3</text><text x="0" y="53.400000000000006" dx="0em" dy="0.3em" style="text-anchor: end; visibility: inherit; font-family: Roboto, sans-serif; font-size: 12px; font-weight: 200;" fill="rgb(50, 49, 63)" stroke="none" stroke-width="1px">4e-3</text><text x="0" y="35.599999999999994" dx="0em" dy="0.3em" style="text-anchor: end; visibility: hidden; font-family: Roboto, sans-serif; font-size: 12px; font-weight: 200;" fill="rgb(50, 49, 63)" stroke="none" stroke-width="1px">6e-3</text><text x="0" y="17.799999999999976" dx="0em" dy="0.3em" style="text-anchor: end; visibility: inherit; font-family: Roboto, sans-serif; font-size: 12px; font-weight: 200;" fill="rgb(50, 49, 63)" stroke="none" stroke-width="1px">8e-3</text><text x="0" y="0" dx="0em" dy="0.3em" style="text-anchor: end; visibility: hidden; font-family: Roboto, sans-serif; font-size: 12px; font-weight: 200;" fill="rgb(50, 49, 63)" stroke="none" stroke-width="1px">0.01</text></g><line x1="60" y1="0" x2="60" y2="178" fill="rgb(0, 0, 0)" stroke="rgb(204, 204, 204)" stroke-width="1px"></line></g></g><g transform="translate(60, 0)" clip-path="url(#clip_0)"><clipPath id="clip_0"><rect width="270" height="178"></rect></clipPath><g><g><g><line x1="0" y1="0" x2="0" y2="178" fill="rgb(0, 0, 0)" stroke="rgb(60, 60, 60)" stroke-width="1px" opacity="0.25"></line><line x1="22.5" y1="0" x2="22.5" y2="178" fill="rgb(0, 0, 0)" stroke="rgb(60, 60, 60)" stroke-width="1px" opacity="0.25"></line><line x1="45" y1="0" x2="45" y2="178" fill="rgb(0, 0, 0)" stroke="rgb(60, 60, 60)" stroke-width="1px" opacity="0.25"></line><line x1="67.5" y1="0" x2="67.5" y2="178" fill="rgb(0, 0, 0)" stroke="rgb(60, 60, 60)" stroke-width="1px" opacity="0.25"></line><line x1="90" y1="0" x2="90" y2="178" fill="rgb(0, 0, 0)" stroke="rgb(60, 60, 60)" stroke-width="1px" opacity="0.25"></line><line x1="112.5" y1="0" x2="112.5" y2="178" fill="rgb(0, 0, 0)" stroke="rgb(60, 60, 60)" stroke-width="1px" opacity="0.25"></line><line x1="135" y1="0" x2="135" y2="178" fill="rgb(0, 0, 0)" stroke="rgb(60, 60, 60)" stroke-width="1px" opacity="0.25"></line><line x1="157.5" y1="0" x2="157.5" y2="178" fill="rgb(0, 0, 0)" stroke="rgb(60, 60, 60)" stroke-width="1px" opacity="0.25"></line><line x1="180" y1="0" x2="180" y2="178" fill="rgb(0, 0, 0)" stroke="rgb(60, 60, 60)" stroke-width="1px" opacity="0.25"></line><line x1="202.5" y1="0" x2="202.5" y2="178" fill="rgb(0, 0, 0)" stroke="rgb(60, 60, 60)" stroke-width="1px" opacity="0.25"></line><line x1="225" y1="0" x2="225" y2="178" fill="rgb(0, 0, 0)" stroke="rgb(60, 60, 60)" stroke-width="1px" opacity="0.25"></line><line x1="247.5" y1="0" x2="247.5" y2="178" fill="rgb(0, 0, 0)" stroke="rgb(60, 60, 60)" stroke-width="1px" opacity="0.25"></line><line x1="270" y1="0" x2="270" y2="178" fill="rgb(0, 0, 0)" stroke="rgb(60, 60, 60)" stroke-width="1px" opacity="0.25"></line></g><g><line x1="0" y1="178" x2="270" y2="178" fill="rgb(0, 0, 0)" stroke="rgb(60, 60, 60)" stroke-width="1px" opacity="0.25"></line><line x1="0" y1="160.20000000000002" x2="270" y2="160.20000000000002" fill="rgb(0, 0, 0)" stroke="rgb(60, 60, 60)" stroke-width="1px" opacity="0.25"></line><line x1="0" y1="142.4" x2="270" y2="142.4" fill="rgb(0, 0, 0)" stroke="rgb(60, 60, 60)" stroke-width="1px" opacity="0.25"></line><line x1="0" y1="124.6" x2="270" y2="124.6" fill="rgb(0, 0, 0)" stroke="rgb(60, 60, 60)" stroke-width="1px" opacity="0.25"></line><line x1="0" y1="106.8" x2="270" y2="106.8" fill="rgb(0, 0, 0)" stroke="rgb(60, 60, 60)" stroke-width="1px" opacity="0.25"></line><line x1="0" y1="89" x2="270" y2="89" fill="rgb(0, 0, 0)" stroke="rgb(60, 60, 60)" stroke-width="1px" opacity="0.25"></line><line x1="0" y1="71.2" x2="270" y2="71.2" fill="rgb(0, 0, 0)" stroke="rgb(60, 60, 60)" stroke-width="1px" opacity="0.25"></line><line x1="0" y1="53.400000000000006" x2="270" y2="53.400000000000006" fill="rgb(0, 0, 0)" stroke="rgb(60, 60, 60)" stroke-width="1px" opacity="0.25"></line><line x1="0" y1="35.599999999999994" x2="270" y2="35.599999999999994" fill="rgb(0, 0, 0)" stroke="rgb(60, 60, 60)" stroke-width="1px" opacity="0.25"></line><line x1="0" y1="17.799999999999976" x2="270" y2="17.799999999999976" fill="rgb(0, 0, 0)" stroke="rgb(60, 60, 60)" stroke-width="1px" opacity="0.25"></line><line x1="0" y1="0" x2="270" y2="0" fill="rgb(0, 0, 0)" stroke="rgb(60, 60, 60)" stroke-width="1px" opacity="0.25"></line></g></g></g><g><g><line x1="0" y1="89" x2="270" y2="89" fill="rgb(0, 0, 0)" stroke="rgb(153, 153, 153)" stroke-width="1.5px"></line></g></g><g><g><line x1="22.5" y1="0" x2="22.5" y2="178" fill="rgb(0, 0, 0)" stroke="rgb(153, 153, 153)" stroke-width="1.5px"></line></g></g><g><g><g><g><g><path stroke="rgb(204, 51, 17)" stroke-width="2px" d="M22.5,71.16262715868652L23.625,38.59241212927734L24.75,28.29531827702055L25.875,22.316914103617076L27,20.0283951603825L28.125,18.632716900942874L29.25,17.067245593801466L30.375,17.8078091649304L31.5,16.994382316377568L32.625,16.629784236462825L33.75,18.28690428939938L34.875,18.305119396017208L36,19.700527602921774L37.125,21.227110242732227L38.25,22.662350393842253L39.375,23.250948244662794L40.5,25.232257192342566L41.625,27.125320647107632L42.75,28.39612268216238L43.875,28.059993420449242L45,28.478753499831846L46.125,29.530565250953714L47.25,30.468996809581334L48.375,29.840358814111664L49.5,29.813445800329035L50.625,30.55629545732512L51.75,31.841926349961483L52.875,33.23386812529104L54,33.12062781048411L55.125,34.10636238636695L56.25,33.35942492192838L57.375,33.85080802659397L58.5,32.85744676001033L59.625,34.1230648224999L60.75,34.82563268873566L61.875,34.272972594363175L63,34.66253940147606L64.125,34.993218318155115L65.25,34.031973565779786L66.375,34.043076296262456L67.5,33.99804584357259L68.625,32.62206989116681L69.75,32.863071757399354L70.875,33.943473455701685L72,33.36400990846358L73.125,34.040543704746256L74.25,33.94115895674338L75.375,32.17147841163899L76.5,32.36149497395072L77.625,32.68387798110098L78.75,32.739908145454514L79.875,32.962990969620975L81,32.139532382905735L82.125,31.81775591186864L83.25,30.512610502016813L84.375,31.939253218157994L85.5,31.02732358406996L86.625,30.761753586864533L87.75,30.037589872143222L88.875,30.56771725148655L90,30.7213743037325L91.125,30.314950889727015L92.25,30.361697834062888L93.375,30.422300977306556L94.5,29.959299228517402L95.625,29.656000262158038L96.75,29.783702625725823L97.875,29.627535570498786L99,29.07471700092345L100.125,28.62387146177999L101.25,28.863887774187997L102.375,28.29825609757822L103.5,27.650241391118286L104.625,28.261131280664166L105.75,27.014556009473527L106.875,27.601364889086554L108,28.204533665383646L109.125,27.50852749511885L110.25,25.714351243616857L111.375,26.809191814417666L112.5,26.33403074524109L113.625,25.636212991364605L114.75,25.36648149888979L115.875,25.846515076466L117,25.27392042777396L118.125,24.36817443580306L119.25,24.902144385641055L120.375,24.404149479130076L121.5,24.128033927952757L122.625,24.11916659213632L123.75,23.545622762665314L124.875,23.44528247959924L126,24.186433366224236L127.125,23.37581109406653L128.25,23.865467029971498L129.375,24.21357524956028L130.5,22.760632789520976L131.625,22.908725975536438L132.75,23.114811631937698L133.875,21.717539873212488L135,22.082446087294777L136.125,22.535889091428494L137.25,22.907463246486426L138.375,22.993336334915067L139.5,22.320605620796158L140.625,20.83319713327567L141.75,20.369069304485794L142.875,20.0099030801175L144,20.579144389541042L145.125,19.600805187887605L146.25,18.856666463414793L147.375,18.966681361377205L148.5,18.375878146398044L149.625,18.81905779755592L150.75,18.651718163588505L151.875,18.43103437071971L153,17.604379851793844L154.125,18.197800194725733L155.25,18.710579796436637L156.375,18.41352204013061L157.5,18.35998697148675L158.625,18.064717346828672L159.75,19.48259857186764L160.875,19.13773675494843L162,18.67904327501924L163.125,17.48054762595934L164.25,16.721073975646757L165.375,15.335787549903568L166.5,15.42065418528949L167.625,15.977192507788141L168.75,15.919633535507083L169.875,15.955018908061234L171,16.23955454395869L172.125,15.59350375513234L173.25,15.753591948330369L174.375,15.300626518475998L175.5,14.586081011383545L176.625,15.299128585033902L177.75,14.719466971143051L178.875,14.829803633263102L180,14.688902400475982L181.125,14.675817497099791L182.25,15.300413037851648L183.375,14.79286053807449L184.5,14.476253956740576L185.625,14.02986859094233L186.75,13.731793304152056L187.875,13.04997556648658L189,13.029426033747242L190.125,12.213622647793343L191.25,12.79205922977403L192.375,14.018380735494357L193.5,13.229457544790286L194.625,13.101811687652201L195.75,12.821492815318102L196.875,12.644432507039555L198,11.979251344252464L199.125,12.50122734114458L200.25,13.473008836537197L201.375,13.467992752927284L202.5,12.72088687577113L203.625,11.88323346947588L204.75,11.680877285748497L205.875,11.37385147067888L207,11.240936842578567L208.125,10.699679247747605L209.25,10.078703911430084L210.375,10.596717304781967L211.5,10.382992024300007L212.625,10.599138709948965L213.75,10.572347988514L214.875,10.616184791819983L216,10.36596352958484L217.125,9.973702511810092L218.25,9.97937009729316L219.375,9.620017562790924L220.5,9.677719974210408L221.625,9.684335321897574L222.75,10.078132057615706L223.875,10.465796211021301L225,9.914217295442326L226.125,9.169630437907129L227.25,9.470362999925953L228.375,8.477802201443856L229.5,7.904317168494454L230.625,8.472229665875645L231.75,8.369663856244241L232.875,8.655145369062488L234,8.326263315731099L235.125,8.540799794944439L236.25,8.504044659943744L237.375,8.330482793159135L238.5,7.225483216230182L239.625,6.928455914487875L240.75,6.30888569082645L241.875,6.039907738422318L243,5.470441566321244L244.125,7.65184715176399L245.25,7.238824334947933L246.375,8.07106070352117" style="fill: none;" fill="none"></path></g><g><path stroke="rgb(0, 119, 187)" stroke-width="2px" d="M22.5,14.491028092801551L23.625,22.86310633504761L24.75,31.552537299046403L25.875,38.47471114043284L27,44.853670974353186L28.125,52.828743587220025L29.25,53.90464066491603L30.375,54.23671069048851L31.5,57.79781336761433L32.625,59.55563624340194L33.75,61.05060894023075L34.875,60.53630987360898L36,62.07283052750564L37.125,63.954872052389355L38.25,65.24298305562954L39.375,65.38286848489037L40.5,63.82807813825847L41.625,61.80812085539241L42.75,60.70114044508884L43.875,62.251938722479196L45,61.35274179559523L46.125,62.07288989973407L47.25,62.01669309381859L48.375,61.865152344102256L49.5,64.0004211707848L50.625,62.507317250996735L51.75,62.5695648285253L52.875,64.16233862206454L54,63.997378267006894L55.125,63.017162983026786L56.25,62.33468120174229L57.375,62.745672822680184L58.5,63.04189762140395L59.625,64.37986483780453L60.75,67.44305766265114L61.875,68.15352308821655L63,65.9100737563827L64.125,66.38460949564698L65.25,65.30305801242862L66.375,63.954108922080685L67.5,64.30064172900485L68.625,65.99320461597097L69.75,64.47962697735565L70.875,65.65571173422231L72,65.98940979554361L73.125,66.5918047703529L74.25,66.69469924172994L75.375,67.98761845882896L76.5,66.7306881737162L77.625,66.19080053292966L78.75,69.04193676744L79.875,68.8250644176244L81,68.70472921730793L82.125,68.63562395305456L83.25,68.57355491001019L84.375,68.88799608754293L85.5,71.2155275669382L86.625,68.96794965910499L87.75,70.22785591250718L88.875,72.46710878914493L90,72.1109672236794L91.125,72.17818334297709L92.25,72.19660993741525L93.375,72.29339209281845L94.5,75.43760495514987L95.625,76.68032269928644L96.75,75.59982853049809L97.875,75.95040600994096L99,75.277056376443L100.125,75.14925330951402L101.25,74.86171881377452L102.375,73.27397502821538L103.5,74.30592409662518L104.625,74.21026247414714L105.75,74.81211621081987L106.875,75.80329564391023L108,77.26127962334272L109.125,78.29716600366423L110.25,77.2199585779413L111.375,76.83390235808668L112.5,74.63989589568779L113.625,73.79936113182787L114.75,76.0057754613777L115.875,73.78987252848268L117,77.15804493965237L118.125,74.91360800365523L119.25,77.76310607051425L120.375,77.13233512885466L121.5,75.67315733133016L122.625,77.7677791964904L123.75,74.9508344327298L124.875,73.37342718511148L126,76.48409499574795L127.125,76.35873055554386L128.25,79.34799275772694L129.375,80.78642307692422L130.5,82.33843758663293L131.625,80.17658460433485L132.75,80.81223225359739L133.875,82.20626868893726L135,81.07422308640196L136.125,83.03112969510785L137.25,80.19092347748895L138.375,81.83164787495328L139.5,82.8742642975476L140.625,81.30554658370474L141.75,80.8943012109608L142.875,82.1353585268161L144,81.4253444965803L145.125,83.9009459635959L146.25,82.35353068166053L147.375,82.515993176568L148.5,82.15127678862571L149.625,83.41786888816272L150.75,84.56652875375116L151.875,86.55635550333254L153,86.37024776340876L154.125,82.5104807951382L155.25,83.35641351598613L156.375,84.34547344581402L157.5,82.42861120189646L158.625,81.84563228341443L159.75,82.656607726641L160.875,86.09928709294984L162,83.27914366067402L163.125,80.78427853400083L164.25,83.61997741118378L165.375,85.36718370080362L166.5,86.07358427730983L167.625,87.4099539592693L168.75,87.22146170506171L169.875,88.09208897807025L171,87.62202189324431L172.125,87.65771452794509L173.25,84.74105823118634L174.375,85.82912697373567L175.5,86.18727941193052L176.625,85.29389547902937L177.75,87.2994857575102L178.875,86.17213721603025L180,87.71513110065476L181.125,91.33244215105631L182.25,91.11016284771246L183.375,91.34951259384293L184.5,92.8417075414344L185.625,89.43246974487658L186.75,92.84100919739637L187.875,90.7238027926934L189,91.58494400573498L190.125,93.02022752211751L191.25,90.73368496889813L192.375,91.53933435557188L193.5,92.00531093763986L194.625,94.15800338817866L195.75,95.6369452883794L196.875,92.42650289073552L198,91.5058379776811L199.125,89.73654623304704L200.25,90.8098401813203L201.375,91.61234665030018L202.5,92.00284448948517L203.625,96.0843384988577L204.75,94.9051287022495L205.875,94.0458214415469L207,92.27437302592203L208.125,91.06656678736765L209.25,91.11728844559899L210.375,91.21980017796807L211.5,93.28958336841703L212.625,94.40537133777747L213.75,95.49676369528613L214.875,95.31207633546005L216,97.33427488300806L217.125,93.32843243354843L218.25,94.44239475555293L219.375,95.34997447305663L220.5,95.67800448027623L221.625,91.58071778742521L222.75,93.59280318774239L223.875,95.12139329151037L225,92.87099722709844L226.125,95.30372070148043L227.25,94.67978696282628L228.375,96.53014899607551L229.5,93.83833290014671L230.625,96.09239073655907L231.75,96.6149501717614L232.875,97.25380745088466L234,97.5606968638996L235.125,95.96487166379838L236.25,97.19509857569604L237.375,97.91335907905977L238.5,95.91723022266287L239.625,97.05902078541553L240.75,99.89171152251922L241.875,98.98992028693011L243,97.89073586864562L244.125,94.88416420526902L245.25,94.52879893117458L246.375,97.15794726771598" style="fill: none;" fill="none"></path></g><g><path stroke="rgb(255, 112, 67)" stroke-width="2px" d="M34.875,178.34926769619514L36,177.24561967152047L37.125,174.54550579010396L38.25,171.7431728644804L39.375,168.69522355626236L40.5,168.76611084015994L41.625,167.97069825702832L42.75,165.63912836459636L43.875,168.52334798483025L45,164.39152669348275L46.125,165.74016741256773L47.25,163.54589388545597L48.375,160.78218919988365L49.5,161.84393438928285L50.625,161.48747253249655L51.75,163.16527761925363L52.875,162.2237225586334L54,160.8313249025827L55.125,162.11168539958888L56.25,161.1355824945299L57.375,162.194572259005L58.5,159.4433000958558L59.625,157.23286247635286L60.75,157.26829251639L61.875,158.22197096730628L63,160.11965528968392L64.125,159.61911500413177L65.25,157.53903754363336L66.375,156.56353248933613L67.5,159.17782931108144L68.625,161.43346030867684L69.75,160.48768968320354L70.875,158.65044065197148L72,158.76752526391672L73.125,158.81180565404648L74.25,159.41554753095832L75.375,159.67856612272212L76.5,158.52036248871406L77.625,157.69844970689778L78.75,156.53251742250092L79.875,156.29191227064283L81,158.35853903476215L82.125,155.75057587017628L83.25,155.8245111896993L84.375,153.9170624461406L85.5,156.36577539125935L86.625,157.9419084100717L87.75,157.5490180289026L88.875,154.62942453758558L90,154.69192622474813L91.125,156.88246863706107L92.25,157.5832062132549L93.375,158.39285628601263L94.5,155.81767783003656L95.625,158.6568680565811L96.75,156.5466606735442L97.875,156.42309358160222L99,157.3325138028891L100.125,158.11132574596593L101.25,158.24250490900033L102.375,154.998051847882L103.5,160.4128944119018L104.625,158.75722313092362L105.75,156.23816100607044L106.875,156.38172935753897L108,154.28333495443962L109.125,153.7473841630572L110.25,155.04473995257342L111.375,157.11279666178777L112.5,158.14512499721857L113.625,159.36518270255334L114.75,158.6338116123152L115.875,156.83745737337304L117,156.99326426290415L118.125,157.62852401437127L119.25,157.72116764278272L120.375,161.2014816620413L121.5,158.43441144114516L122.625,158.283499786173L123.75,154.1216212474791L124.875,153.76100439956713L126,154.35781245011643L127.125,155.16214812891818L128.25,157.49750202803096L129.375,154.57172065620588L130.5,155.10699955758432L131.625,152.44299755103577L132.75,153.82357232485526L133.875,154.7200110999603L135,153.81516405480258L136.125,156.7613741578886L137.25,155.6195045700508L138.375,158.4471788505219L139.5,157.04422903281466L140.625,158.92417487932454L141.75,159.28014615734344L142.875,159.8277697075005L144,158.01142211756678L145.125,156.75561600626452L146.25,153.40372035846679L147.375,153.6655678581927L148.5,157.9193184946021L149.625,156.05935499587895L150.75,155.85287223171736L151.875,155.04395378551808L153,154.70194209096985L154.125,159.10569785224294L155.25,154.1142784308606L156.375,157.86323710389217L157.5,156.0724283053415L158.625,155.40666066223008L159.75,153.18974780210033L160.875,156.15205614667042L162,153.82997420371117L163.125,153.97521872708523L164.25,155.0934653342624L165.375,152.80460924794434L166.5,152.75743926325535L167.625,152.34750402426178L168.75,152.67523192438753L169.875,149.82847567467851L171,153.1396175261972L172.125,153.6221642456435L173.25,151.76762595844164L174.375,153.1310555961543L175.5,152.86698283861958L176.625,156.806292015975L177.75,155.8490311882885L178.875,155.3123355512018L180,158.35935873265237L181.125,154.62140767857534L182.25,158.20090513727132L183.375,155.88359026119747L184.5,158.63077839616324L185.625,158.65435624214044L186.75,157.6972081964733L187.875,155.8915329310609L189,157.13532619525867L190.125,158.86895391404556L191.25,160.54413660055354L192.375,159.72249559498403L193.5,157.13460039980157L194.625,156.5768456854638L195.75,153.06603199232916L196.875,154.13162325018226L198,158.23392039652813L199.125,157.6240322157213L200.25,156.90655595522932L201.375,154.80418034620175L202.5,155.81797286407405L203.625,159.2077576475516L204.75,157.67536162329765L205.875,158.368938721675L207,157.3961240343501L208.125,160.73033332927523L209.25,159.95926631899775L210.375,160.24584148473798L211.5,156.11831159232415L212.625,156.87245816343042L213.75,154.22221214758164L214.875,156.42772979847675L216,157.32993104047827L217.125,158.92433681480438L218.25,158.5479287506184L219.375,157.38791787928588L220.5,155.6393899637833L221.625,154.54892716740815L222.75,151.2071365367487L223.875,152.38758436075537L225,155.1009747071963L226.125,153.72083822839863L227.25,152.39356511281972L228.375,152.70721852449802L229.5,154.91402136932746L230.625,155.095854080623L231.75,157.04195090347864L232.875,155.94325346776446L234,155.03569016771675L235.125,154.78917660365798L236.25,152.58915611311969L237.375,154.3846026984166L238.5,153.70466282008948L239.625,150.06905978792227L240.75,156.2929924242098L241.875,156.44981735646124L243,155.8587641698086L244.125,153.85091700595402L245.25,152.74473069648016L246.375,151.4701099703614" style="fill: none;" fill="none"></path></g></g></g></g><g opacity="0.2"><g><g><g><path stroke="rgb(204, 51, 17)" stroke-width="2px" d="M22.5,71.16262715868652L23.625,19.05028311163185L24.75,18.410108178853967L25.875,15.28631079569457L27,17.040504828095415L28.125,16.70199142396448L29.25,14.828596577048282L30.375,18.887557961046674L31.5,15.794735714793186L32.625,16.088398579508045L33.75,20.7575544118881L34.875,18.33234293013809L36,21.789083663374164L37.125,23.513993468135574L38.25,24.813523549586513L39.375,24.133429896086433L40.5,28.203382190316894L41.625,29.96443518064914L42.75,30.30213214084504L43.875,27.555830251425483L45,29.10687065310774L46.125,31.108248267322757L47.25,31.87662561982868L48.375,28.89740926772354L49.5,29.773076470941284L50.625,31.670566774904707L51.75,33.77036939933894L52.875,35.32177865132687L54,32.95076744258402L55.125,35.58496370539067L56.25,32.23901897296307L57.375,34.587882585823515L58.5,31.367404978722313L59.625,36.021491825580576L60.75,35.87948445789514L61.875,33.4439824670553L63,35.24688960611818L64.125,35.489236690103986L65.25,32.590106442570665L66.375,34.059730391949394L67.5,33.93050016462801L68.625,30.55810596421359L69.75,33.224574556574204L70.875,35.564076002687194L72,32.49481458775697L73.125,35.05534439906476L74.25,33.792081834748366L75.375,29.516957594081738L76.5,32.64651981741188L77.625,33.16745249181984L78.75,32.823953391984084L79.875,33.29761520586906L81,30.904344502836445L82.125,31.33509120531378L83.25,28.554892387241104L84.375,34.07921729236839L85.5,29.659429132938364L86.625,30.363398591056445L87.75,28.951344300061443L88.875,31.362908320501425L90,30.951859882101395L91.125,29.705315768718698L92.25,30.4318182505667L93.375,30.51320569217203L94.5,29.264796605333665L95.625,29.20105181261895L96.75,29.97525617107747L97.875,29.39328498765824L99,28.24548914656041L100.125,27.947603153064826L101.25,29.223912242799976L102.375,27.449808582663515L103.5,26.678219331428387L104.625,29.17746611498294L105.75,25.144693102687576L106.875,28.481578208506086L108,29.109286829829195L109.125,26.464518239721635L110.25,23.02308686636386L111.375,28.45145267061887L112.5,25.621289141476133L113.625,24.589486360549905L114.75,24.96188426017759L115.875,26.566565442830303L117,24.415028454735854L118.125,23.00955544784663L119.25,25.70309931039808L120.375,23.657157119363525L121.5,23.71386060118673L122.625,24.105865588411667L123.75,22.685307018458822L124.875,23.294772055000045L126,25.298159696161726L127.125,22.159877685829976L128.25,24.59995093382893L129.375,24.73573757894335L130.5,20.58121909946201L131.625,23.130865754559615L132.75,23.423940116539576L133.875,19.621632235124686L135,22.629805408418157L136.125,23.21605359762905L137.25,23.464824479073265L138.375,23.122145967558005L139.5,21.311509549617746L140.625,18.602084401994922L141.75,19.67287756130097L142.875,19.47115374356506L144,21.433006353676298L145.125,18.133296385407426L146.25,17.740458376705625L147.375,19.131703708320835L148.5,17.48967332392929L149.625,19.483827274292686L150.75,18.400708712637403L151.875,18.10000868141649L153,16.364398073405006L154.125,19.08793070912359L155.25,19.47974919900296L156.375,17.967935405671575L157.5,18.279684368520954L158.625,17.621812909841516L159.75,21.609420409426072L160.875,18.620444029569605L162,17.991003055125454L163.125,15.68280415236948L164.25,15.58186350017784L165.375,13.257857911288719L166.5,15.547954138368349L167.625,16.81199999153612L168.75,15.833295077085475L169.875,16.00809696689246L171,16.66635799780486L172.125,14.624427571892719L173.25,15.99372423812745L174.375,14.6211783736944L175.5,13.5142627507448L176.625,16.368699945509412L177.75,13.849974550306777L178.875,14.995308626443128L180,14.477550551295261L181.125,14.656190142035465L182.25,16.237306348979452L183.375,14.031531788408737L184.5,14.001344084739666L185.625,13.360290542244892L186.75,13.284680373966674L187.875,12.027248959988336L189,12.998601734638195L190.125,10.989917568862419L191.25,13.659714102745037L192.375,15.857862994074802L193.5,12.046072758734207L194.625,12.910342901945095L195.75,12.401014506816844L196.875,12.378842044621686L198,10.981479600071888L199.125,13.284191336482744L200.25,14.930681079626064L201.375,13.460468627512435L202.5,11.600228060036878L203.625,10.626753360033016L204.75,11.377343010157327L205.875,10.913312748074512L207,11.041564900428037L208.125,9.887792855501155L209.25,9.147240906953792L210.375,11.373737394809703L211.5,10.062404103577117L212.625,10.923358738422374L213.75,10.53216190636156L214.875,10.681939996778945L216,9.990631636232118L217.125,9.385310985147933L218.25,9.98787147551773L219.375,9.080988761037569L220.5,9.764273591339569L221.625,9.694258343428354L222.75,10.668827161192874L223.875,11.047292441129665L225,9.086848922073822L226.125,8.052750151604394L227.25,9.92146184295414L228.375,6.988961003720741L229.5,7.044089619070272L230.625,9.32409841194747L231.75,8.215815141797046L232.875,9.083367638289909L234,7.832940235733966L235.125,8.862604513764362L236.25,8.448911957442741L237.375,8.07013999298213L238.5,5.567983850836734L239.625,6.4829149618744655L240.75,5.379530355334262L241.875,5.6364408098161025L243,4.616242308169584L244.125,10.923955529928188L245.25,6.619290109723787L246.375,9.319415256381015" style="fill: none;" fill="none"></path></g><g><path stroke="rgb(0, 119, 187)" stroke-width="2px" d="M22.5,14.491028092801551L23.625,27.886353280395248L24.75,39.89439102448523L25.875,46.61518757790327L27,53.1820409335196L28.125,63.861140036955476L29.25,55.443190700374544L30.375,54.72087197564542L31.5,63.04974810779095L32.625,62.16579835023731L33.75,63.279508693143725L34.875,59.767660066485405L36,64.37259450182319L37.125,66.77424722444266L38.25,67.17363543435931L39.375,65.592597970739L40.5,61.4965505534783L41.625,58.77869779802859L42.75,59.04083846695721L43.875,64.57799438945949L45,60.003995719365776L46.125,63.15308835916221L47.25,61.93239899445325L48.375,61.6378430146724L49.5,67.20330923423171L50.625,60.267667738720775L51.75,62.66293603554368L52.875,66.55149686709046L54,63.74993788637221L55.125,61.54684059880674L56.25,61.310958756133914L57.375,63.36216017231345L58.5,63.48623478412628L59.625,66.38681556656957L60.75,72.0378467682749L61.875,69.21922120824456L63,62.544899793341756L64.125,67.0964131001383L65.25,63.680730793625116L66.375,61.930685291066766L67.5,64.82044093869627L68.625,68.53204894438386L69.75,62.20926052052528L70.875,67.41983886901289L72,66.4899568874389L73.125,67.4953972324729L74.25,66.84904094878584L75.375,69.92699728440493L76.5,64.8452927460894L77.625,65.38096907176077L78.75,73.31864111917093L79.875,68.49975589290261L81,68.5242264168337L82.125,68.53196605667472L83.25,68.48045134544373L84.375,69.35965785384178L85.5,74.70682478602976L86.625,65.59658279735595L87.75,72.11771529261023L88.875,75.82598810410127L90,71.57675487548113L91.125,72.27900752192363L92.25,72.2242498290725L93.375,72.43856532592326L94.5,80.15392424864694L95.625,78.54439931549132L96.75,73.97908727731556L97.875,76.47627222910523L99,74.26703192619607L100.125,74.9575487091206L101.25,74.43041707016528L102.375,70.89235934987664L103.5,75.85384769923985L104.625,74.06677004043013L105.75,75.71489681582898L106.875,77.29006479354575L108,79.44825559249148L109.125,79.85099557414651L110.25,75.6041474393569L111.375,76.25481802830473L112.5,71.34888620208949L113.625,72.53855898603797L114.75,79.31539695570245L115.875,70.46601812914014L117,82.21030355640687L118.125,71.54695259965956L119.25,82.03735317080282L120.375,76.18617871636525L121.5,73.48439063504338L122.625,80.90971199423075L123.75,70.72541728708893L124.875,71.00731631368399L126,81.15009671170264L127.125,76.17068389523774L128.25,83.83188606100157L129.375,82.94406855572015L130.5,84.66645935119595L131.625,76.93380513088778L132.75,81.7657037274912L133.875,84.29732334194705L135,79.37615468259901L136.125,85.96648960816674L137.25,75.93061415106058L138.375,84.29273447114974L139.5,84.43818893143907L140.625,78.95247001294047L141.75,80.27743315184489L142.875,83.99694450059906L144,80.36032345122658L145.125,87.61434816411929L146.25,80.03240775875747L147.375,82.75968691892922L148.5,81.60420220671222L149.625,85.31775703746825L150.75,86.28951855213381L151.875,89.54109562770464L153,86.09108615352307L154.125,76.72083034273237L155.25,84.62531259725802L156.375,85.82906334055588L157.5,79.55331783602014L158.625,80.97116390569136L159.75,83.8730708914809L160.875,91.26330614241306L162,79.04892851226032L163.125,77.04198084399104L164.25,87.87352572695818L165.375,87.98799313523341L166.5,87.13318514206912L167.625,89.41450848220848L168.75,86.93872332375031L169.875,89.3980298875831L171,86.91692126600537L172.125,87.71125347999623L173.25,80.36607378604822L174.375,87.46123008755967L175.5,86.7245080692228L176.625,83.95381957967766L177.75,90.30787117523141L178.875,84.48111440381035L180,90.0296219275915L181.125,96.75840872665867L182.25,90.77674389269669L183.375,91.70853721303865L184.5,95.0799999628216L185.625,84.31861305003986L186.75,97.95381837617606L187.875,87.54799318563892L189,92.87665582529735L190.125,95.17315279669128L191.25,87.30387113906909L192.375,92.74780843558256L193.5,92.70427581074182L194.625,97.38704206398688L195.75,97.85535813868046L196.875,87.61083929426968L198,90.12484060809948L199.125,87.08260861609597L200.25,92.4197811037302L201.375,92.81610635377001L202.5,92.58859124826267L203.625,102.2065795129165L204.75,93.1363140073372L205.875,92.756860550493L207,89.61720040248474L208.125,89.25485742953606L209.25,91.19337093294598L210.375,91.37356777652167L211.5,96.3942581540905L212.625,96.07905329181813L213.75,97.1338522315491L214.875,95.03504529572092L216,100.36757270433009L217.125,87.31966875935905L218.25,96.11333823855966L219.375,96.71134404931217L220.5,96.1700494911056L221.625,85.43478774814866L222.75,96.61093128821813L223.875,97.41427844716236L225,89.49540313048055L226.125,98.95280591305345L227.25,93.74388635484502L228.375,99.3056920459494L229.5,89.8006087562535L230.625,99.47347749117762L231.75,97.39878932456486L232.875,98.21209336956963L234,98.02103098342195L235.125,93.57113386364654L236.25,99.04043894354254L237.375,98.99074983410537L238.5,92.92303693806753L239.625,98.7717066295445L240.75,104.14074762817472L241.875,97.6372334335465L243,96.24195924121886L244.125,90.37430671020411L245.25,93.99575102003291L246.375,101.10166977252811" style="fill: none;" fill="none"></path></g><g><path stroke="rgb(255, 112, 67)" stroke-width="2px" d="M30.375,183.5676151663065L31.5,176.3240416869521L32.625,181.54046361893415L33.75,175.45026432350278L34.875,177.08013508096337L36,175.59375123679638L37.125,170.50062477216125L38.25,167.54296751320362L39.375,164.12544924393296L40.5,168.87241176888347L41.625,166.77778133749962L42.75,162.14212871715426L43.875,172.84941378608346L45,158.19402135536075L46.125,167.76308411359787L47.25,160.25452691689134L48.375,156.63666491024196L49.5,163.43654462695122L50.625,160.95278126746416L51.75,165.6819809563458L52.875,160.81139141321182L54,158.74272970110178L55.125,164.03222543746233L56.25,159.6714284606278L57.375,163.78305669501424L58.5,155.31639217957854L59.625,153.91720620542765L60.75,157.32143757492304L61.875,159.65248861908913L63,162.96618174389005L64.125,158.86830458045006L65.25,154.41892136447132L66.375,155.10027491115034L67.5,163.0992745384574L68.625,164.81690680235624L69.75,159.06903374567628L70.875,155.89456710591912L72,158.94315218180418L73.125,158.8782262392342L74.25,160.3211603462696L75.375,160.0730940103531L76.5,156.78305703774095L77.625,156.46558053418994L78.75,154.78361899591982L79.875,155.9310045428574L81,161.45847918093204L82.125,151.83863112330437L83.25,155.9354141689837L84.375,151.05588933080435L85.5,160.03884480893612L86.625,160.30610793828964L87.75,156.95968245714903L88.875,150.25003430061042L90,154.78567875549197L91.125,160.16828225553036L92.25,158.63431257754564L93.375,159.60733139514923L94.5,151.9549101460725L95.625,162.91565339639783L96.75,153.3813495989889L97.875,156.23774294368923L99,158.6966441348195L100.125,159.2795436605811L101.25,158.43927365355194L102.375,150.1313722562045L103.5,168.53515825793147L104.625,156.27371620945632L105.75,152.45956781879067L106.875,156.59708188474178L108,151.13574334979057L109.125,152.94345797598362L110.25,156.99077363684773L111.375,160.2148817256093L112.5,159.69361750036478L113.625,161.1952692605555L114.75,157.53675497695804L115.875,154.1429260149598L117,157.22697459720075L118.125,158.581413641572L119.25,157.86013308539987L120.375,166.42195269092917L121.5,154.28380610980093L122.625,158.05713230371475L123.75,147.87880343943834L124.875,153.22007912769914L126,155.25302452594042L127.125,156.3686516471207L128.25,161.00053287670016L129.375,150.1830485984683L130.5,155.909917909652L131.625,148.44699454121292L132.75,155.8944344855845L133.875,156.06466926261783L135,152.45789348706603L136.125,161.18068931251764L137.25,153.90670018829405L138.375,162.68869027122855L139.5,154.9398043062538L140.625,161.74409364908934L141.75,159.81410307437181L142.875,160.64920503273606L144,155.28690073266625L145.125,154.87190683931112L146.25,148.37587688677013L147.375,154.05833910778165L148.5,164.29994444921613L149.625,153.26940974779427L150.75,155.54314808547497L151.875,153.83057611621916L153,154.1889245491475L154.125,165.71133149415255L155.25,146.62714929878712L156.375,163.48667511343956L157.5,153.38621510751545L158.625,154.40800919756293L159.75,149.86437851190567L160.875,160.59551866352558L162,150.3468512892723L163.125,154.19308551214635L164.25,156.77083524502814L165.375,149.3713251184672L166.5,152.68668428622186L167.625,151.73260116577148L168.75,153.1668237745762L169.875,145.558341300115L171,158.10633030347526L172.125,154.3459843248129L173.25,148.9858185276389L174.375,155.1762000527233L175.5,152.47087370231748L176.625,162.71525578200817L177.75,154.41313994675875L178.875,154.50729209557176L180,162.92989350482821L181.125,149.0144810974598L182.25,163.57015132531524L183.375,152.4076179470867L184.5,162.75156059861183L185.625,158.68972301110625L186.75,156.2614861279726L187.875,153.1830200329423L189,159.00101609155536L190.125,161.46939549222589L191.25,163.05691063031554L192.375,158.49003408662975L193.5,153.2527576070279L194.625,155.74021361395717L195.75,147.79981145262718L196.875,155.73001013696194L198,164.3873661160469L199.125,156.70919994451106L200.25,155.8303415644914L201.375,151.65061693266034L202.5,157.3386616408825L203.625,164.29243482276797L204.75,155.37676758691669L205.875,159.409304369241L207,155.93690200336277L208.125,165.73164727166295L209.25,158.80266580358148L210.375,160.67570423334837L211.5,149.92701675370336L212.625,158.00367802008986L213.75,150.2468431238085L214.875,159.73600627481937L216,158.68323290348053L217.125,161.31594547629356L218.25,157.98331665433943L219.375,155.64790157228708L220.5,153.01659809052944L221.625,152.91323297284544L222.75,146.19445059075952L223.875,154.1582560967654L225,159.17106022685766L226.125,151.65063351020217L227.25,150.40265543945134L228.375,153.17769864201546L229.5,158.22422563657165L230.625,155.36860314756632L231.75,159.96109613776207L232.875,154.29520731419325L234,153.67434521764517L235.125,154.4194062575698L236.25,149.2891253773123L237.375,157.0777725763619L238.5,152.68475300259888L239.625,144.61565523967147L240.75,165.62889137864113L241.875,156.68505475483835L243,154.97218438982964L244.125,150.83914626017213L245.25,151.0854512322694L246.375,149.55817888118327" style="fill: none;" fill="none"></path></g></g></g></g></g></g><g transform="translate(60, 178)" clip-path="url(#clip_1)"><clipPath id="clip_1"><rect width="270" height="22"></rect></clipPath><g><g><line x1="0" y1="0" x2="0" y2="5" style="visibility: inherit;" fill="rgb(0, 0, 0)" stroke="rgb(204, 204, 204)" stroke-width="1px"></line><line x1="22.5" y1="0" x2="22.5" y2="5" style="visibility: inherit;" fill="rgb(0, 0, 0)" stroke="rgb(204, 204, 204)" stroke-width="1px"></line><line x1="45" y1="0" x2="45" y2="5" style="visibility: inherit;" fill="rgb(0, 0, 0)" stroke="rgb(204, 204, 204)" stroke-width="1px"></line><line x1="67.5" y1="0" x2="67.5" y2="5" style="visibility: inherit;" fill="rgb(0, 0, 0)" stroke="rgb(204, 204, 204)" stroke-width="1px"></line><line x1="90" y1="0" x2="90" y2="5" style="visibility: inherit;" fill="rgb(0, 0, 0)" stroke="rgb(204, 204, 204)" stroke-width="1px"></line><line x1="112.5" y1="0" x2="112.5" y2="5" style="visibility: inherit;" fill="rgb(0, 0, 0)" stroke="rgb(204, 204, 204)" stroke-width="1px"></line><line x1="135" y1="0" x2="135" y2="5" style="visibility: inherit;" fill="rgb(0, 0, 0)" stroke="rgb(204, 204, 204)" stroke-width="1px"></line><line x1="157.5" y1="0" x2="157.5" y2="5" style="visibility: inherit;" fill="rgb(0, 0, 0)" stroke="rgb(204, 204, 204)" stroke-width="1px"></line><line x1="180" y1="0" x2="180" y2="5" style="visibility: inherit;" fill="rgb(0, 0, 0)" stroke="rgb(204, 204, 204)" stroke-width="1px"></line><line x1="202.5" y1="0" x2="202.5" y2="5" style="visibility: inherit;" fill="rgb(0, 0, 0)" stroke="rgb(204, 204, 204)" stroke-width="1px"></line><line x1="225" y1="0" x2="225" y2="5" style="visibility: inherit;" fill="rgb(0, 0, 0)" stroke="rgb(204, 204, 204)" stroke-width="1px"></line><line x1="247.5" y1="0" x2="247.5" y2="5" style="visibility: inherit;" fill="rgb(0, 0, 0)" stroke="rgb(204, 204, 204)" stroke-width="1px"></line><line x1="270" y1="0" x2="270" y2="5" style="visibility: inherit;" fill="rgb(0, 0, 0)" stroke="rgb(204, 204, 204)" stroke-width="1px"></line></g><g transform="translate(0, 8)"><text x="0" y="0" dx="0em" dy="0.95em" style="text-anchor: middle; visibility: hidden; font-family: Roboto, sans-serif; font-size: 12px; font-weight: 200;" fill="rgb(50, 49, 63)" stroke="none" stroke-width="1px">-1k</text><text x="22.5" y="0" dx="0em" dy="0.95em" style="text-anchor: middle; visibility: inherit; font-family: Roboto, sans-serif; font-size: 12px; font-weight: 200;" fill="rgb(50, 49, 63)" stroke="none" stroke-width="1px">0</text><text x="45" y="0" dx="0em" dy="0.95em" style="text-anchor: middle; visibility: inherit; font-family: Roboto, sans-serif; font-size: 12px; font-weight: 200;" fill="rgb(50, 49, 63)" stroke="none" stroke-width="1px">1k</text><text x="67.5" y="0" dx="0em" dy="0.95em" style="text-anchor: middle; visibility: inherit; font-family: Roboto, sans-serif; font-size: 12px; font-weight: 200;" fill="rgb(50, 49, 63)" stroke="none" stroke-width="1px">2k</text><text x="90" y="0" dx="0em" dy="0.95em" style="text-anchor: middle; visibility: inherit; font-family: Roboto, sans-serif; font-size: 12px; font-weight: 200;" fill="rgb(50, 49, 63)" stroke="none" stroke-width="1px">3k</text><text x="112.5" y="0" dx="0em" dy="0.95em" style="text-anchor: middle; visibility: inherit; font-family: Roboto, sans-serif; font-size: 12px; font-weight: 200;" fill="rgb(50, 49, 63)" stroke="none" stroke-width="1px">4k</text><text x="135" y="0" dx="0em" dy="0.95em" style="text-anchor: middle; visibility: inherit; font-family: Roboto, sans-serif; font-size: 12px; font-weight: 200;" fill="rgb(50, 49, 63)" stroke="none" stroke-width="1px">5k</text><text x="157.5" y="0" dx="0em" dy="0.95em" style="text-anchor: middle; visibility: inherit; font-family: Roboto, sans-serif; font-size: 12px; font-weight: 200;" fill="rgb(50, 49, 63)" stroke="none" stroke-width="1px">6k</text><text x="180" y="0" dx="0em" dy="0.95em" style="text-anchor: middle; visibility: inherit; font-family: Roboto, sans-serif; font-size: 12px; font-weight: 200;" fill="rgb(50, 49, 63)" stroke="none" stroke-width="1px">7k</text><text x="202.5" y="0" dx="0em" dy="0.95em" style="text-anchor: middle; visibility: inherit; font-family: Roboto, sans-serif; font-size: 12px; font-weight: 200;" fill="rgb(50, 49, 63)" stroke="none" stroke-width="1px">8k</text><text x="225" y="0" dx="0em" dy="0.95em" style="text-anchor: middle; visibility: inherit; font-family: Roboto, sans-serif; font-size: 12px; font-weight: 200;" fill="rgb(50, 49, 63)" stroke="none" stroke-width="1px">9k</text><text x="247.5" y="0" dx="0em" dy="0.95em" style="text-anchor: middle; visibility: inherit; font-family: Roboto, sans-serif; font-size: 12px; font-weight: 200;" fill="rgb(50, 49, 63)" stroke="none" stroke-width="1px">10k</text><text x="270" y="0" dx="0em" dy="0.95em" style="text-anchor: middle; visibility: hidden; font-family: Roboto, sans-serif; font-size: 12px; font-weight: 200;" fill="rgb(50, 49, 63)" stroke="none" stroke-width="1px">11k</text></g><line x1="0" y1="0" x2="270" y2="0" fill="rgb(0, 0, 0)" stroke="rgb(204, 204, 204)" stroke-width="1px"></line></g></g></g></g></svg>